HIERARCHY
ROOT root
{
	OFFSET 0.000000 0.000000 0.000000
	CHANNELS 6 Xposition Yposition Zposition Zrotation Yrotation Xrotation
	JOINT lhip
	{
		OFFSET 0.058581 -0.082280 -0.017664
		CHANNELS 3 Zrotation Yrotation Xrotation
		JOINT lknee
		{
			OFFSET 0.043451 -0.386469 0.008037
			CHANNELS 3 Zrotation Yrotation Xrotation
			JOINT lankle
			{
				OFFSET -0.014790 -0.426874 -0.037428
				CHANNELS 3 Zrotation Yrotation Xrotation
				JOINT ltoe
				{
					OFFSET 0.041054 -0.060286 0.122042
					CHANNELS 3 Zrotation Yrotation Xrotation
					End Site
					{
						OFFSET 0.000000 0.000000 0.000000
					}
				}
			}
		}
	}
	JOINT rhip
	{
		OFFSET -0.060310 -0.090513 -0.013543
		CHANNELS 3 Zrotation Yrotation Xrotation
		JOINT rknee
		{
			OFFSET -0.043257 -0.383688 -0.004843
			CHANNELS 3 Zrotation Yrotation Xrotation
			JOINT rankle
			{
				OFFSET 0.019056 -0.420046 -0.034562
				CHANNELS 3 Zrotation Yrotation Xrotation
				JOINT rtoe
				{
					OFFSET -0.034840 -0.062106 0.130323
					CHANNELS 3 Zrotation Yrotation Xrotation
					End Site
					{
						OFFSET 0.000000 0.000000 0.000000
					}
				}
			}
		}
	}
	JOINT lowerback
	{
		OFFSET 0.004439 0.124404 -0.038385
		CHANNELS 3 Zrotation Yrotation Xrotation
		JOINT upperback
		{
			OFFSET 0.004488 0.137956 0.026820
			CHANNELS 3 Zrotation Yrotation Xrotation
			JOINT chest
			{
				OFFSET -0.002265 0.056032 0.002855
				CHANNELS 3 Zrotation Yrotation Xrotation
				JOINT lowerneck
				{
					OFFSET -0.013390 0.211636 -0.033468
					CHANNELS 3 Zrotation Yrotation Xrotation
					JOINT upperneck
					{
						OFFSET 0.010113 0.088937 0.050410
						CHANNELS 3 Zrotation Yrotation Xrotation
						End Site
						{
							OFFSET 0.000000 0.000000 0.000000
						}
					}
				}
				JOINT lclavicle
				{
					OFFSET 0.071702 0.114000 -0.018898
					CHANNELS 3 Zrotation Yrotation Xrotation
					JOINT lshoulder
					{
						OFFSET 0.122921 0.045205 -0.019046
						CHANNELS 3 Zrotation Yrotation Xrotation
						JOINT lelbow
						{
							OFFSET 0.255332 -0.015649 -0.022946
							CHANNELS 3 Zrotation Yrotation Xrotation
							JOINT lwrist
							{
								OFFSET 0.265709 0.012698 -0.007375
								CHANNELS 3 Zrotation Yrotation Xrotation
								End Site
								{
									OFFSET 0.000000 0.000000 0.000000
								}
							}
						}
					}
				}
				JOINT rclavicle
				{
					OFFSET -0.082954 0.112472 -0.023707
					CHANNELS 3 Zrotation Yrotation Xrotation
					JOINT rshoulder
					{
						OFFSET -0.113228 0.046853 -0.008472
						CHANNELS 3 Zrotation Yrotation Xrotation
						JOINT relbow
						{
							OFFSET -0.260127 -0.014369 -0.031269
							CHANNELS 3 Zrotation Yrotation Xrotation
							JOINT rwrist
							{
								OFFSET -0.269108 0.006794 -0.006027
								CHANNELS 3 Zrotation Yrotation Xrotation
								End Site
								{
									OFFSET 0.000000 0.000000 0.000000
								}
							}
						}
					}
				}
			}
		}
	}
}
MOTION
Frames: 14
Frame Time: 0.033333
-1.678950 0.792771 1.012458 93.566102 -2.291157 84.311964 -6.731709 -2.665865 1.112656 -5.566535 -13.061873 4.502920 8.341177 5.410337 -5.311325 0.000000 -0.000000 0.000000 -3.594683 -2.491736 -10.014477 0.315366 -2.797822 62.919926 4.607499 -11.594440 9.121438 0.000000 -0.000000 0.000000 -3.860845 0.536185 15.533613 1.327182 1.277031 -4.367686 -0.339887 -0.974643 1.962998 1.970910 0.989318 -5.428032 -4.143496 -1.894750 9.819083 -28.438681 9.093559 -0.977003 -53.546177 -4.231835 7.859088 7.979043 -25.636021 6.413407 -6.598094 -1.991492 -7.304860 30.929153 -2.309201 -2.274162 54.501973 5.051302 16.398049 -14.000035 25.622893 -10.273491 8.591600 3.346938 -6.388403 
-1.646830 0.793861 1.012620 93.788350 -1.720897 83.580433 -6.132712 -1.298376 4.613501 -5.515248 -14.789982 3.412413 8.564349 5.750066 -5.588929 0.000000 -0.000000 0.000000 -3.471136 -1.565981 -13.562375 0.552819 -3.286610 62.756024 3.190812 -11.053018 4.301420 0.000000 -0.000000 0.000000 -3.344905 -1.136826 14.694881 1.321110 1.914581 -3.165905 -0.407661 -1.010419 2.192660 1.823243 1.806582 -5.067803 -4.169127 -2.038182 9.395643 -28.318260 7.415006 -0.806665 -53.100332 -5.416746 7.828290 8.121809 -26.176105 5.728782 -6.288631 -2.493597 -7.542137 30.648206 -1.985248 -1.587052 54.569992 4.565859 15.742535 -14.268859 25.691736 -10.221535 8.977958 3.069053 -7.347167 
-1.622649 0.795843 1.012952 96.348206 -0.917818 83.128425 -5.317984 -1.206101 6.189115 -5.797576 -16.198631 4.508999 7.928795 5.338281 -7.644457 0.000000 -0.000000 0.000000 -3.722615 -1.757710 -17.107811 0.549338 -5.304842 59.978434 3.205009 -11.270900 0.030513 0.000000 -0.000000 0.000000 -1.857832 -2.105454 17.014383 1.229345 0.703336 -5.085638 -0.847206 -2.117682 2.080901 2.097693 2.554322 -5.974012 -4.383908 -2.292629 10.745216 -27.773113 6.698736 -1.368881 -52.899062 -7.029748 8.259888 7.760636 -26.498587 6.116070 -5.392447 -2.816716 -6.459962 30.744044 -2.490346 -2.241429 54.214899 3.553788 15.787045 -13.719076 25.488759 -9.805781 8.747181 3.233257 -6.520969 
-1.586745 0.796378 1.010663 97.725335 -0.270227 82.486190 -4.122029 -0.289541 9.281603 -5.967622 -17.948066 4.411063 7.328955 4.942584 -9.575402 0.000000 -0.000000 0.000000 -4.087898 -1.759145 -20.033476 -0.278781 -7.530392 52.961997 3.805197 -11.765716 -2.599690 0.000000 -0.000000 0.000000 -1.328292 -2.947512 17.230712 1.402084 0.310025 -4.482857 -0.511775 -2.941955 2.281849 1.547657 3.146331 -6.409381 -4.178183 -2.264472 10.655096 -27.454215 5.130156 -1.608698 -52.638825 -9.303243 8.465914 7.490319 -26.591509 5.936791 -4.754653 -3.062535 -6.166603 30.645335 -2.479304 -2.477548 53.629091 2.925928 15.345698 -13.109135 25.029113 -9.148926 8.817590 3.481771 -6.087048 
-1.563573 0.795925 1.008717 98.550644 0.032070 82.600620 -3.352987 -0.041500 10.716580 -6.132903 -18.667616 4.346290 6.981519 4.662047 -10.625731 0.000000 -0.000000 0.000000 -4.206579 -2.241880 -21.278962 -0.278954 -8.176494 46.952477 5.109958 -11.832560 -5.008288 0.000000 -0.000000 0.000000 -1.131911 -3.031405 16.564783 1.576758 -0.228419 -4.064571 -0.221718 -3.566140 2.358789 1.267152 3.729665 -6.576359 -4.094076 -2.196325 10.524407 -27.242657 4.518796 -1.430402 -52.549786 -10.496772 8.591601 7.390272 -26.995346 6.006726 -3.989939 -3.140002 -5.953968 30.622413 -2.695664 -2.348674 53.280769 2.535257 15.053155 -12.703408 24.909057 -8.534298 8.552895 3.251127 -6.018471 
-1.535861 0.795601 1.005612 98.932781 0.206556 82.807492 -2.813273 0.554011 11.973369 -6.230336 -19.109602 5.058485 6.663371 4.604104 -12.207506 0.000000 -0.000000 0.000000 -4.281063 -2.338600 -22.461340 -0.433230 -9.159145 37.172347 6.074359 -11.822420 -4.070461 0.000000 -0.000000 0.000000 -0.834798 -3.656966 16.828579 1.389739 -0.636387 -4.491881 -0.060342 -3.852945 2.274309 0.943548 3.935549 -6.674759 -3.754036 -1.930981 10.622387 -26.700513 3.987799 -1.237580 -52.564295 -11.936531 8.683069 7.525742 -27.409203 5.688366 -3.512069 -3.280050 -5.850738 30.579322 -2.825426 -2.197985 53.411896 2.577560 14.925866 -12.358779 23.276127 -8.206588 8.398756 3.380178 -5.473982 
-1.507894 0.794487 1.001537 98.736530 0.225160 83.235372 -2.607895 0.963892 13.194264 -6.000844 -19.147644 5.380733 6.471657 4.804165 -14.029779 0.000000 -0.000000 0.000000 -3.783783 -2.165860 -22.967712 -0.340246 -8.705166 25.776789 7.182540 -10.835554 -1.925955 0.000000 -0.000000 0.000000 -0.751301 -3.852049 16.980854 1.192937 -0.662680 -4.825344 0.255253 -4.160292 2.247685 0.538146 4.469217 -7.851654 -3.317130 -1.479215 11.078980 -26.365694 3.797080 -1.539330 -52.635734 -13.188883 8.903207 7.702935 -28.087621 5.145703 -2.867980 -3.962547 -5.155469 30.640166 -3.162468 -2.448825 53.469450 2.453894 14.980848 -12.289498 21.712066 -8.374129 8.391739 4.047273 -5.343158 
-1.479228 0.792864 0.996448 98.758011 0.276061 83.422983 -2.190396 1.328867 14.525880 -6.086026 -19.073882 6.086248 6.238727 4.872509 -15.425641 0.000000 -0.000000 0.000000 -3.134770 -1.629423 -22.466562 -0.388195 -6.672741 15.132490 8.185406 -9.122495 -1.894103 0.000000 -0.000000 0.000000 -0.739163 -3.892022 16.897210 1.216641 -1.191786 -4.421538 0.559235 -4.212404 2.019791 0.235908 4.541377 -7.360923 -3.033263 -1.513224 10.086946 -25.681314 3.053883 -1.395771 -53.081386 -13.928912 9.046159 8.086847 -28.195153 4.829129 -3.630006 -2.548039 -5.638141 30.433597 -3.051146 -2.184175 53.952888 2.726341 14.359501 -12.286296 20.962911 -9.276361 8.388835 2.751921 -6.140818 
-1.449012 0.790249 0.991698 98.941461 0.408790 83.346836 -1.408313 1.913401 15.697882 -6.466906 -19.179292 7.791777 5.384246 4.492225 -16.975081 0.000000 -0.000000 0.000000 -2.723477 -1.132621 -21.583358 -0.569061 -5.839546 7.881601 9.821267 -7.419686 -2.587009 0.000000 -0.000000 0.000000 -0.609617 -4.089442 17.109399 1.182635 -1.502835 -3.979888 0.636214 -4.545131 2.255352 0.226751 5.568580 -8.727346 -2.687308 -1.534480 10.628069 -25.894443 2.459095 -1.344783 -52.303282 -15.318369 8.925794 8.501572 -29.877164 3.241072 -1.008078 -5.055774 -4.047604 30.752385 -2.873936 -2.588500 53.899478 2.454063 14.307869 -12.170089 20.242295 -9.306533 7.619571 2.730364 -6.048390 
-1.409123 0.787408 0.986787 99.630793 0.308017 83.518860 -0.893897 1.846389 16.965216 -6.830264 -20.565084 10.161104 4.909161 4.756287 -17.844832 0.000000 -0.000000 0.000000 -2.963059 -0.406550 -22.140333 -0.402258 -6.612569 8.509098 10.834371 -7.341584 -3.010812 0.000000 -0.000000 0.000000 -0.993618 -5.070401 17.813310 1.302888 -1.617760 -4.608925 0.766331 -4.849243 2.136889 0.473796 5.894791 -9.317072 -2.805395 -1.224810 10.790116 -25.795863 2.895760 -1.220704 -52.146319 -15.324779 9.119897 8.479069 -31.091361 4.295932 -2.128428 -4.214657 -4.813969 31.553747 -3.178336 -2.775808 53.461764 2.255955 14.123734 -12.027881 18.042824 -9.035143 7.465820 2.440236 -5.311334 
-1.375469 0.783964 0.985270 99.749536 0.389131 83.659459 -0.508237 1.459085 17.838368 -7.064272 -21.477587 12.390095 4.012415 4.829824 -17.288606 0.000000 -0.000000 0.000000 -2.645452 0.528875 -22.636655 -0.160979 -7.063979 13.031222 9.521266 -8.787565 -2.428042 0.000000 -0.000000 0.000000 -1.258580 -5.679992 17.898757 1.497127 -1.353201 -4.555243 0.798987 -5.049951 2.101046 0.789232 6.107235 -9.722829 -3.115400 -1.099048 11.129957 -25.985381 3.332266 -1.467442 -51.924122 -15.380192 9.258573 8.268592 -31.307549 5.065552 -2.263803 -4.532666 -4.945633 32.037908 -3.397541 -3.214204 53.303843 1.888553 14.469485 -11.827354 16.777819 -8.801070 7.509920 2.471622 -5.056656 
-1.339587 0.779819 0.986946 99.841099 0.640961 83.808790 -0.085227 0.865308 18.435195 -7.398091 -22.375686 15.366454 2.496213 4.309123 -15.657434 0.000000 -0.000000 0.000000 -1.634958 1.175502 -22.309169 -0.843078 -7.585366 15.505179 8.437856 -9.187044 0.045410 0.000000 -0.000000 0.000000 -1.463140 -6.080603 17.694968 1.771394 -1.233012 -4.499676 0.981178 -4.992297 2.034957 0.988184 5.814525 -9.621596 -3.124212 -0.842671 11.286293 -26.336568 3.788116 -1.202336 -51.901234 -14.907347 9.316347 7.978436 -31.463357 5.563664 -3.011001 -4.074426 -5.077663 32.523266 -3.620918 -3.156347 53.068059 1.671241 14.353779 -11.838135 15.809700 -9.110588 8.002216 2.212552 -5.257120 
-1.301939 0.775587 0.991764 98.952866 1.039439 84.323618 0.042379 0.492909 17.993935 -7.697607 -22.061612 19.223650 0.883838 4.432735 -12.162775 0.000000 -0.000000 0.000000 -0.849247 2.169920 -22.092507 -0.021136 -6.557810 17.228734 8.448115 -9.059206 1.453607 0.000000 -0.000000 0.000000 -1.260002 -6.220858 16.839464 1.987998 -0.672226 -4.103426 0.937050 -4.838141 1.773684 1.000189 6.454755 -9.854790 -3.141649 0.036468 11.478641 -26.969480 4.663096 -1.196292 -52.106907 -13.780653 9.650357 8.551237 -31.612219 5.347657 -3.511297 -4.486586 -4.588781 32.816066 -4.097847 -3.157608 52.958457 1.648329 14.347352 -11.836273 14.733735 -9.667722 8.561469 1.819547 -5.709964 
-1.261620 0.771027 0.997720 97.696021 1.549686 84.467370 0.350056 0.517774 16.868733 -8.334429 -20.882108 24.633730 -2.351985 3.392160 -6.361862 0.000000 -0.000000 0.000000 0.296577 2.736800 -20.572196 0.531047 -6.482144 18.660472 6.789236 -7.639281 0.835781 0.000000 -0.000000 0.000000 -0.694840 -6.171517 16.372864 2.044070 -0.379373 -4.075693 0.721368 -4.353837 1.403590 0.958346 6.780719 -9.603470 -2.967701 0.338763 11.496490 -27.237314 5.679983 -0.952328 -52.424768 -12.225105 9.678413 8.712007 -31.746716 5.169762 -3.836778 -4.847699 -4.249387 32.779587 -4.397670 -2.721525 53.125266 1.274888 14.114938 -11.751608 14.159028 -9.234419 8.868162 1.824625 -5.915028 
